<?xml version="1.0" encoding="utf-8"?>
<!-- Generator: Adobe Illustrator 18.1.1, SVG Export Plug-In . SVG Version: 6.00 Build 0)  -->
<svg fill="#3a4dcd" version="1.1" id="Capa_1" xmlns="http://www.w3.org/2000/svg" xmlns:xlink="http://www.w3.org/1999/xlink" x="0px" y="0px"
	 viewBox="0 0 612 792" enable-background="new 0 0 612 792" xml:space="preserve">
<g>
	<g>
		<path d="M505,413.5c-4.9,0-8.9,4-8.9,8.9c0,6.2-5.1,11.3-11.3,11.3c-6.2,0-11.3-5.1-11.3-11.3c0-4.9-4-8.9-8.9-8.9s-8.9,4-8.9,8.9
			c0,16.1,13.1,29.1,29.1,29.1c16.1,0,29.1-13.1,29.1-29.1C513.9,417.5,509.9,413.5,505,413.5z"/>
	</g>
</g>
<g>
	<g>
		<path stroke="#000000" stroke-width="4" stroke-miterlimit="10" d="M588.6,414.9l-25.1-8c-3.2-1-5.7-3.6-6.8-6.9
			c-5.3-16.8-13.3-32.6-23.7-46.9c-4.8-6.5-10.1-12.7-15.8-18.7c3.7-16.2,5.7-34.6,5.4-50.4c-0.4-22.7-4.9-36-13.9-40.7
			c-4.8-2.5-19.5-10.2-99,26.2c-1.9,0.9-3.6,1.9-5.3,3.1c-5.4-1.4-10.8-2.8-16.3-4c-0.7-0.1-1.3-0.3-2-0.4
			c6.4-14.1,10.2-29.3,10.9-45.1c0.2-4.9-3.6-9.1-8.5-9.3s-9.1,3.6-9.3,8.5c-1.2,25.9-11.9,50.3-30.3,68.7c-11,11-23.8,18.9-37.5,24
			c-23.7-3.3-47.9-3.3-71.7,0c-13.7-5-26.5-13-37.5-24c-19.6-19.6-30.4-45.7-30.4-73.4s10.8-53.8,30.4-73.4s45.7-30.4,73.4-30.4
			s53.8,10.8,73.4,30.4c7.9,7.9,14.4,16.9,19.3,26.7c2.2,4.4,7.6,6.2,12,3.9c4.4-2.2,6.2-7.6,3.9-12c-5.8-11.5-13.4-22.1-22.7-31.3
			c-23-23-53.5-35.6-86-35.6s-63,12.6-86,35.6s-35.6,53.5-35.6,86s12.6,63,35.6,86c6.6,6.6,13.8,12.3,21.4,17.1l0,0
			c-5.5,1.4-11,3.1-16.5,4.9c-4.7,1.6-7.2,6.6-5.6,11.3c1.6,4.7,6.6,7.2,11.3,5.6c48.6-16.2,102.1-16.2,150.6,0
			c0.9,0.3,1.9,0.5,2.8,0.5c3.7,0,7.2-2.4,8.4-6.1c1.6-4.7-1-9.7-5.6-11.3c-5.4-1.8-10.9-3.4-16.5-4.9l0,0
			c7.6-4.8,14.8-10.5,21.4-17.1c5.9-5.9,11-12.3,15.5-19.1c2.5,0.5,4.9,1,7.3,1.5c3.2,0.7,6.4,1.4,9.5,2.2c-0.1,0.4-0.2,0.8-0.3,1.2
			c-4.3,20.6-4.1,38.8,0.8,54.2c4.4,13.8,12.4,25,23.6,33.2c13.3,9.7,29.3,13.9,43.8,13.9c10.9,0,21-2.4,28.4-6.6
			c8.4-4.7,15.4-14.7,20.9-29.7c2.6,3,5,6.1,7.3,9.2c9.3,12.7,16.4,26.8,21.1,41.7c2.8,8.8,9.6,15.7,18.3,18.5l25.1,8
			c6.6,2.1,11,8.2,11,15.1v41.6c0,6.9-4.4,13-11,15.1l-40.4,12.9c-6.5,2.1-11.9,6.5-15.4,12.5c-15.9,27.4-40.8,50.1-74.2,67.4
			c-3.9,2-6.5,5.6-7.3,9.8L433,674.8c-0.4,1.9-2,3.3-3.9,3.3H387c-1.9,0-3.6-1.4-3.9-3.3l-7.2-37.9c-1.4-7.4-8.4-12.4-15.9-11.3
			c-18.1,2.7-36.8,4.1-55.5,4.1c-13.9,0-27.6-0.8-40.8-2.3c-7.3-0.8-14.1,4.1-15.4,11.3l-6.8,36c-0.4,1.9-2,3.3-3.9,3.3h-42.1
			c-1.9,0-3.6-1.4-3.9-3.3L179.1,610c-0.8-4.2-3.4-7.7-7.2-9.7C115,570,85,519.3,85,453.8c0-33.1,7.2-62.4,21.5-87
			c13.3-23,32.8-42,57.9-56.5c4.3-2.5,5.7-7.9,3.3-12.2c-2.5-4.3-7.9-5.7-12.2-3.3c-48.6,28.1-78,71.5-86,126.6l0,0
			c-0.9-0.1-1.7-0.2-2.6-0.2c0.2-5.9-0.9-11.9-3.3-17.8c-5.2-12.8-15.8-22.1-27-23.6c-8.9-1.2-17.3,2.6-23.2,10.3
			c-8.5,11.2-7.1,20.1-4.5,25.6c4.5,9.2,16,15.8,35.2,19.9c-0.5,0.8-1.1,1.6-1.7,2.4c-11.3,14.2-24.6,17.3-33.3,17.6
			C4,455.8,0,459.8,0,464.9l0,0c0,5,3.9,9.1,8.9,9.3c0.6,0,1.3,0,2,0c10.9,0,28.5-4,45.4-25.2c2.7-3.3,4.8-6.9,6.5-10.5
			c1.7,0.2,3.3,0.4,4.8,0.5l0,0c-0.3,4.8-0.5,9.7-0.5,14.7c0,37.1,8.8,70.2,26.3,98.3c16.1,25.9,39.1,47.2,68.4,63.1l12.1,62.9
			c1.9,10.3,11,17.8,21.4,17.8h42.1c10.5,0,19.5-7.5,21.4-17.8l6.2-32.5c12.8,1.4,26,2,39.4,2c18.4,0,36.7-1.3,54.6-3.8l6.5,34.3
			c1.9,10.3,11,17.8,21.4,17.8H429c10.5,0,19.5-7.5,21.4-17.8l12.6-66.7c35.6-18.8,62.4-43.5,79.7-73.5c1.2-2.2,3.2-3.7,5.4-4.5
			l40.4-12.9c14-4.5,23.4-17.4,23.4-32V447C612,432.3,602.6,419.4,588.6,414.9z M503.6,309.1c-3.4,29.3-12.6,54.4-21.9,59.6
			c-10.5,5.9-34.7,7.1-53-6.2c-18.2-13.3-24.3-37.3-17.5-69.3l0,0c0.7-3.2,3-6,6.1-7.4c44.6-20.4,70.3-27.1,79.8-27.1
			c1.4,0,2.5,0.2,3.2,0.4C503.3,262.1,507,279.5,503.6,309.1z M25,408c-0.9-1.9,1.3-5.2,2.6-7.1c2.2-2.9,4.2-3.5,5.7-3.5
			c0.3,0,0.6,0,0.9,0.1c4.1,0.5,9.8,5.1,12.9,12.6c0.7,1.8,1.6,4.7,1.9,8.4C36.7,415.9,27.1,412.2,25,408z"/>
	</g>
</g>
<g>
	<g>
		<path d="M284.4,207.5v-31.9c11,0.8,15.1,5.8,18.8,5.8c4.7,0,6.9-6,6.9-8.9c0-7.7-15.1-11-25.8-11.3V157c0-1.9-2.4-3.6-4.7-3.6
			c-2.7,0-4.6,1.7-4.6,3.6v4.6c-14.9,1.6-29.8,9.4-29.8,29.2c0,20.1,15.7,25.8,29.8,30.8v36.9c-16-1.3-20.3-12.2-25.4-12.2
			c-3.9,0-7.2,5.2-7.2,9c0,7.7,13.2,18.2,32.7,18.5l0,0v4.9c0,1.9,1.9,3.6,4.6,3.6c2.4,0,4.7-1.7,4.7-3.6v-5.3
			c17-2.4,28.6-13,28.6-32.3C313,219.4,298,212.5,284.4,207.5z M276.1,204.5c-8.3-3.1-15.1-6.4-15.1-15.4c0-8.2,6.3-12.1,15.1-13.2
			V204.5z M283.4,258v-33.1c7.7,3.3,13.8,7.7,13.8,17.6C297.3,251.4,291.9,256.5,283.4,258z"/>
	</g>
</g>
</svg>
