<?xml version="1.0" encoding="utf-8"?>
<!-- Generator: Adobe Illustrator 18.1.1, SVG Export Plug-In . SVG Version: 6.00 Build 0)  -->
<svg fill="#3a4dcd" version="1.1" id="Capa_1" xmlns="http://www.w3.org/2000/svg" xmlns:xlink="http://www.w3.org/1999/xlink" x="0px" y="0px"
	 viewBox="0 0 612 792" enable-background="new 0 0 612 792" xml:space="preserve">
<g>
	<g>
		<g>
			<path d="M550.9,379.1c0-30.7-23.2-56.2-53-59.7V165c0-9.4-6.1-17.5-15.3-19.9c-9.1-2.5-18.4,1.4-23.2,9.5
				c-32.6,56.1-83.9,94.4-152.6,113.9c-51.9,14.8-94.8,12.6-95.2,12.6c-0.6,0-1.3,0-1.9,0.1H100c-55.2,0-100,44.9-100,100
				c0,51.9,39.8,94.8,90.5,99.6L123.6,617c4.4,18,20.4,30.6,39,30.6h23c12.4,0,23.9-5.6,31.5-15.3c7.7-9.7,10.4-22.2,7.4-34.3
				l-28.4-116.8h13.6c0.6,0.1,1.2,0.1,1.9,0.1c0.4,0,43.3-2.2,95.2,12.6c68.7,19.5,120,57.9,152.6,113.9
				c3.8,6.5,10.5,10.3,17.7,10.3c1.8,0,3.7-0.2,5.5-0.7c9.1-2.5,15.3-10.5,15.3-19.9V443.2c29.8-3.6,53-29,53-59.7L550.9,379.1
				L550.9,379.1z M197.5,588.2l3.8,15.5c1.2,4.9,0.1,9.9-3,13.8c-3.1,3.9-7.7,6.2-12.7,6.2h-23c-7.5,0-14-5.1-15.7-12.4l-31.6-130.1
				h56.3L180,516h-5.7c-6.6,0-12,5.4-12,12s5.4,12,12,12h11.5l5.9,24.3H188c-6.6,0-12,5.4-12,12s5.4,12,12,12H197.5z M199.1,406.7
				h-74.3c-6.6,0-12,5.4-12,12c0,6.6,5.4,12,12,12h74.3v26.8h-17.5c-0.2,0-0.4,0-0.7,0H100c-0.1,0-0.2,0-0.3,0
				c-41.8-0.2-75.8-34.3-75.8-76.1c0-42,34.1-76.1,76.1-76.1h99L199.1,406.7L199.1,406.7z M474,330.8v100.9v154.2
				c-35.8-55.7-91.4-95.4-161.4-115.1c-38.8-10.9-72.3-13.1-89.6-13.4v-38.7V305.2c17.4-0.3,50.9-2.5,89.6-13.4
				c70-19.7,125.6-59.4,161.4-115.1V330.8z M527,383.5c0,17.5-12.5,32.2-29.1,35.6v-75.5c16.6,3.3,29.1,18,29.1,35.6V383.5z"/>
			<path d="M554.5,311.5c2.9,0,5.8-1,8-3.1L597,277c4.9-4.4,5.2-12,0.8-16.9c-4.4-4.9-12-5.2-16.9-0.8l-34.5,31.4
				c-4.9,4.4-5.2,12-0.8,16.9C548,310.2,551.2,311.5,554.5,311.5z"/>
			<path d="M562.5,454.1c-4.9-4.4-12.4-4.1-16.9,0.8s-4.1,12.4,0.8,16.9l34.5,31.4c2.3,2.1,5.2,3.1,8,3.1c3.2,0,6.5-1.3,8.8-3.9
				c4.4-4.9,4.1-12.4-0.8-16.9L562.5,454.1z"/>
			<path d="M600,369.3h-26.5c-6.6,0-12,5.4-12,12s5.4,12,12,12H600c6.6,0,12-5.4,12-12S606.6,369.3,600,369.3z"/>
			<path d="M86.6,414.1c-0.3-0.7-0.7-1.4-1.1-2.1c-0.4-0.7-0.9-1.3-1.5-1.8c-0.6-0.5-1.2-1.1-1.8-1.5c-0.6-0.4-1.3-0.8-2.1-1.1
				c-0.7-0.3-1.5-0.5-2.2-0.7c-1.5-0.3-3.1-0.3-4.7,0c-0.8,0.2-1.5,0.4-2.2,0.7s-1.4,0.7-2.1,1.1c-0.7,0.4-1.3,0.9-1.8,1.5
				s-1.1,1.2-1.5,1.8c-0.4,0.6-0.8,1.3-1.1,2.1c-0.3,0.7-0.5,1.5-0.7,2.2c-0.2,0.8-0.2,1.6-0.2,2.3s0.1,1.6,0.2,2.3
				c0.2,0.8,0.4,1.5,0.7,2.2c0.3,0.7,0.7,1.4,1.1,2.1c0.4,0.7,0.9,1.3,1.5,1.8c0.5,0.5,1.2,1.1,1.8,1.5c0.6,0.4,1.4,0.8,2.1,1.1
				s1.5,0.5,2.2,0.7c0.8,0.2,1.6,0.2,2.3,0.2c0.8,0,1.6-0.1,2.3-0.2c0.8-0.2,1.5-0.4,2.2-0.7c0.7-0.3,1.4-0.7,2.1-1.1
				c0.7-0.4,1.3-0.9,1.8-1.5c0.5-0.5,1-1.2,1.5-1.8c0.4-0.6,0.8-1.3,1.1-2.1c0.3-0.7,0.5-1.5,0.7-2.2c0.2-0.8,0.2-1.6,0.2-2.3
				s-0.1-1.6-0.2-2.3S86.9,414.8,86.6,414.1z"/>
		</g>
	</g>
</g>
</svg>
