<?xml version="1.0" encoding="utf-8"?>
<!-- Generator: Adobe Illustrator 18.1.1, SVG Export Plug-In . SVG Version: 6.00 Build 0)  -->
<svg  fill="#3a4dcd" version="1.1" id="Capa_1" xmlns="http://www.w3.org/2000/svg" xmlns:xlink="http://www.w3.org/1999/xlink" x="0px" y="0px"
	 viewBox="112 202 500 500" enable-background="new 112 202 500 500" xml:space="preserve">
<g>
	<g>
		<path d="M589.9,204.1c-2-2.2-4.9-3.4-7.9-3.4H135c-3,0-5.8,1.2-7.9,3.4c-2,2.2-3,5.1-2.7,8l42.6,417.3c0.4,4.1,3.2,7.6,7.2,8.8
			L365.8,701c1.1,0.4,2.3,0.5,3.4,0.5c1.3,0,2.6-0.3,3.7-0.7l170.3-62.6c3.8-1.4,6.5-4.8,6.8-8.7l42.6-417.3
			C592.9,209.2,591.9,206.2,589.9,204.1z M529.5,621l-160.6,59l-181.5-59.3l-40.8-399.2h423.5L529.5,621z"/>
	</g>
</g>
<g>
	<g>
		<path d="M496.7,303.2H235.2c-3.1,0-6,1.3-8.1,3.5c-2.1,2.2-3.1,5.3-2.7,8.3l10.9,108c0.5,5.5,5.3,9.7,10.9,9.7h216.1l-18.9,121.8
			l-77.6,28.9l-88.5-29.2l-9.7-47.8c-1.2-5.8-6.9-9.6-12.9-8.5c-5.9,1.1-9.8,6.9-8.6,12.7l10.9,54c0.7,3.8,3.6,6.9,7.2,8.1l98,32.4
			c1.1,0.4,2.3,0.5,3.5,0.5c1.3,0,2.6-0.3,3.8-0.7l87.2-32.4c3.6-1.3,6.4-4.6,6.9-8.5l21.8-140.4c0.5-3.1-0.5-6.3-2.5-8.7
			c-2-2.4-5.1-3.8-8.3-3.8H256l-8.8-86.4h249.5c6,0,10.9-4.9,10.9-10.8S502.7,303.2,496.7,303.2z"/>
	</g>
</g>
</svg>
