<?xml version="1.0" encoding="utf-8"?>
<!-- Generator: Adobe Illustrator 18.1.1, SVG Export Plug-In . SVG Version: 6.00 Build 0)  -->
<svg fill="#3a4dcd" version="1.1" id="Capa_1" xmlns="http://www.w3.org/2000/svg" xmlns:xlink="http://www.w3.org/1999/xlink" x="0px" y="0px"
	 viewBox="112 202 500 500" enable-background="new 112 202 500 500" xml:space="preserve">
<g>
	<g>
		<path d="M112,201.5v500h500v-500H112z M582.7,672.2H141.3V230.8h441.4L582.7,672.2L582.7,672.2z"/>
	</g>
</g>
<g>
	<path stroke="#000000" stroke-width="3" stroke-miterlimit="10" d="M263.3,477.4v97.5h-23.2V324.3h64.6c13.2,0,24.8,1.6,35,4.9
		c10.1,3.3,18.7,8,25.7,14.1c7,6.2,12.3,13.7,15.9,22.7c3.6,9,5.4,19.2,5.4,30.7c0,11.7-2,22.4-6.1,32.3c-4.1,9.9-10,18.4-17.6,25.5
		c-7.6,7.2-16.9,12.7-27.9,16.7c-10.9,4-23.4,6-37.3,6L263.3,477.4L263.3,477.4z M263.3,345.6v110.5h33.2c21.6,0,37.9-5,49.1-15
		s16.7-24.2,16.7-42.5c0-35.3-20.6-52.9-61.8-52.9L263.3,345.6L263.3,345.6z"/>
</g>
<g>
	<path d="M385.3,531.1l24.2-3.8c1.4,9.6,5.1,17.1,11.4,22.2c6.2,5.1,14.9,7.8,26,7.8c11.2,0,19.5-2.3,24.9-6.9
		c5.4-4.6,8.2-9.9,8.2-16.1c0-5.6-2.4-9.9-7.2-13c-3.3-2.2-11.7-4.9-24.9-8.3c-17.9-4.5-30.3-8.4-37.3-11.8
		c-6.9-3.3-12.2-7.8-15.8-13.7c-3.6-5.8-5.4-12.3-5.4-19.4c0-6.5,1.5-12.3,4.4-17.8c2.9-5.5,6.9-10,12-13.6c3.8-2.8,9-5.1,15.5-7.1
		s13.6-2.9,21.1-2.9c11.3,0,21.2,1.6,29.7,4.9c8.5,3.3,14.9,7.7,19,13.2s6.9,13,8.4,22.3l-23.9,3.3c-1.1-7.4-4.2-13.2-9.4-17.4
		c-5.2-4.2-12.6-6.2-22.1-6.2c-11.2,0-19.2,1.9-24,5.6c-4.8,3.7-7.2,8.1-7.2,13c0,3.2,1,6,3,8.6c2,2.6,5.1,4.8,9.4,6.5
		c2.5,0.9,9.6,3,21.6,6.2c17.2,4.6,29.3,8.4,36.1,11.4c6.9,2.9,12.2,7.2,16.1,12.8s5.8,12.6,5.8,20.9c0,8.2-2.4,15.8-7.1,23
		s-11.7,12.7-20.7,16.7s-19.1,5.9-30.4,5.9c-18.7,0-33-3.9-42.8-11.7C394.2,557.9,388,546.4,385.3,531.1z"/>
</g>
</svg>
