<?xml version="1.0" encoding="utf-8"?>
<!-- Generator: Adobe Illustrator 18.1.1, SVG Export Plug-In . SVG Version: 6.00 Build 0)  -->
<svg version="1.1" id="Layer_1" xmlns="http://www.w3.org/2000/svg" xmlns:xlink="http://www.w3.org/1999/xlink" x="0px" y="0px"
	 viewBox="0 86 612 620" enable-background="new 0 86 612 620" xml:space="preserve">
<title>Wordpress</title>
<g id="Wordpress">
	<g id="_Group_">
		<g id="_Group_2">
			
				<line id="_Path_" fill="none" stroke="#3a4dcd" stroke-width="20" stroke-linecap="round" stroke-linejoin="round" x1="260.6" y1="281.3" x2="382" y2="626"/>
			
				<line id="_Path_2" fill="none" stroke="#3a4dcd" stroke-width="20" stroke-linecap="round" stroke-linejoin="round" x1="334.6" y1="281.3" x2="425.1" y2="562.5"/>
			
				<line id="_Path_3" fill="none" stroke="#3a4dcd" stroke-width="20" stroke-linecap="round" stroke-linejoin="round" x1="92.6" y1="281.3" x2="212.9" y2="619.6"/>
			
				<line id="_Path_4" fill="none" stroke="#3a4dcd" stroke-width="20" stroke-linecap="round" stroke-linejoin="round" x1="166" y1="281.3" x2="253.2" y2="554.1"/>
			<path id="_Path_5" fill="none" stroke="#3a4dcd" stroke-width="20" stroke-linecap="round" stroke-linejoin="round" d="
				M408,615.8c0,0,55.1-171.6,76.5-241S504.6,267,495,247.3c-7.1-17-23.2-28.6-41.6-29.8c-19.4,0-31.6,11.5-31.6,42.1
				s68.9,94.6,54.1,144.6"/>
			
				<line id="_Path_6" fill="none" stroke="#3a4dcd" stroke-width="20" stroke-linecap="round" stroke-linejoin="round" x1="228.2" y1="625.5" x2="305.5" y2="408.2"/>
			
				<line id="_Path_7" fill="none" stroke="#3a4dcd" stroke-width="20" stroke-linecap="round" stroke-linejoin="round" x1="242.3" y1="281.3" x2="357" y2="281.3"/>
			
				<line id="_Path_8" fill="none" stroke="#3a4dcd" stroke-width="20" stroke-linecap="round" stroke-linejoin="round" x1="92.6" y1="281.3" x2="191.3" y2="281.3"/>
		</g>
		
			<circle id="_Path_9" fill="none" stroke="#3a4dcd" stroke-width="20" stroke-linecap="round" stroke-linejoin="round" cx="306" cy="396" r="293.3"/>
		
			<circle id="_Path_10" fill="none" stroke="#3a4dcd" stroke-width="20" stroke-linecap="round" stroke-linejoin="round" cx="306" cy="396" r="242.3"/>
	</g>
</g>
</svg>
